# xmcd
#
# Track frame offsets:
#	150
#	15694
#	28227
#	42429
#	56153
#	73059
#	89602
#	111339
#	126303
#	142339
#	160926
#	174762
#	188273
#	203259
#	213439
#	225455
#	244267
#	258254
#	272707
#	288400
#	300073
#	314070
#	325559
#	339479
#
# Disc length: 4768 seconds
#
# Revision: 0
# Processed by: cddbd v1.5.2PL0 Copyright (c) Steve Scherf et al.
# Submitted via: EasyCDDAExtractor 16.0.4.1
#
DISCID=5b129e18
DTITLE=Salvadore Adamo - Las Mejores Canciones
DYEAR=2003
DGENRE=
TTITLE0=Muy Juntos
TTITLE1=Aline
TTITLE2=Arroyo De Mi Infancia
TTITLE3=Ella
TTITLE4=En Bandolera
TTITLE5=Era Una Linda Flor
TTITLE6=Inch' Allah(Spanish)
TTITLE7=La Noche
TTITLE8=L'amour Te Ressemble
TTITLE9=Mes Mains Sur Tes Hanches
TTITLE10=Mi Gran Noche
TTITLE11=Mis Manos En Tu Cintura
TTITLE12=Nuestra Novela
TTITLE13=Paula
TTITLE14=Porque Yo Quiero
TTITLE15=Que Sera
TTITLE16=Quiero
TTITLE17=Tombe La Neige
TTITLE18=Si L'amour Existe Encore
TTITLE19=Tu Nombre
TTITLE20=Un Muchon De Tus Cabellos
TTITLE21=Vivir
TTITLE22=J'aime
TTITLE23=C'est Ma Vie
EXTD=
EXTT0=
EXTT1=
EXTT2=
EXTT3=
EXTT4=
EXTT5=
EXTT6=
EXTT7=
EXTT8=
EXTT9=
EXTT10=
EXTT11=
EXTT12=
EXTT13=
EXTT14=
EXTT15=
EXTT16=
EXTT17=
EXTT18=
EXTT19=
EXTT20=
EXTT21=
EXTT22=
EXTT23=
PLAYORDER=
